HIERARCHY
ROOT Hips
{
	OFFSET 0.770019 87.576900 1.102080
	CHANNELS 6 Xposition Yposition Zposition Zrotation Yrotation Xrotation 
	JOINT Spine
	{
		OFFSET 0.000000 9.923500 -1.227300
		CHANNELS 3 Zrotation Yrotation Xrotation
		JOINT Spine1
		{
			OFFSET -0.000100 11.645400 -1.422300
			CHANNELS 3 Zrotation Yrotation Xrotation
			JOINT Spine2
			{
				OFFSET 0.000100 13.360200 -1.626500
				CHANNELS 3 Zrotation Yrotation Xrotation
				JOINT Neck
				{
					OFFSET 0.000000 15.032500 0.792900
					CHANNELS 3 Zrotation Yrotation Xrotation
					JOINT Head
					{
						OFFSET 0.000000 10.321800 3.142400
						CHANNELS 3 Zrotation Yrotation Xrotation
						JOINT HeadTop_End
						{
							OFFSET 0.000200 18.474700 6.636400
							CHANNELS 3 Zrotation Yrotation Xrotation
							End Site
							{
								OFFSET 0.000000 0.000000 0.000000
							}
						}
						JOINT LeftEye
						{
							OFFSET 2.947900 7.681700 9.120700
							CHANNELS 3 Zrotation Yrotation Xrotation
							End Site
							{
								OFFSET 0.000000 0.000000 0.000000
							}
						}
						JOINT RightEye
						{
							OFFSET -2.944500 7.681700 9.120500
							CHANNELS 3 Zrotation Yrotation Xrotation
							End Site
							{
								OFFSET 0.000000 0.000000 0.000000
							}
						}
					}
				}
				JOINT LeftShoulder
				{
					OFFSET 6.105800 9.110400 0.705600
					CHANNELS 3 Zrotation Yrotation Xrotation
					JOINT LeftArm
					{
						OFFSET 12.655000 -0.265900 -2.600900
						CHANNELS 3 Zrotation Yrotation Xrotation
						JOINT LeftForeArm
						{
							OFFSET 27.404700 0.000000 0.000000
							CHANNELS 3 Zrotation Yrotation Xrotation
							JOINT LeftHand
							{
								OFFSET 27.614500 0.000000 0.000000
								CHANNELS 3 Zrotation Yrotation Xrotation
								JOINT LeftHandMiddle1
								{
									OFFSET 12.775500 0.000000 0.000000
									CHANNELS 3 Zrotation Yrotation Xrotation
									JOINT LeftHandMiddle2
									{
										OFFSET 3.614000 0.000000 0.000000
										CHANNELS 3 Zrotation Yrotation Xrotation
										JOINT LeftHandMiddle3
										{
											OFFSET 3.459800 0.000000 0.000000
											CHANNELS 3 Zrotation Yrotation Xrotation
											End Site
											{
												OFFSET 0.000000 0.000000 0.000000
											}
										}
									}
								}
								JOINT LeftHandThumb1
								{
									OFFSET 3.788800 -2.167000 3.003100
									CHANNELS 3 Zrotation Yrotation Xrotation
									JOINT LeftHandThumb2
									{
										OFFSET 3.675400 -2.122000 2.122000
										CHANNELS 3 Zrotation Yrotation Xrotation
										JOINT LeftHandThumb3
										{
											OFFSET 3.394400 -1.959700 1.959800
											CHANNELS 3 Zrotation Yrotation Xrotation
											End Site
											{
												OFFSET 0.000000 0.000000 0.000000
											}
										}
									}
								}
								JOINT LeftHandIndex1
								{
									OFFSET 12.266600 -0.231700 2.822100
									CHANNELS 3 Zrotation Yrotation Xrotation
									JOINT LeftHandIndex2
									{
										OFFSET 3.892000 0.000000 0.000000
										CHANNELS 3 Zrotation Yrotation Xrotation
										JOINT LeftHandIndex3
										{
											OFFSET 3.415200 0.000000 0.000000
											CHANNELS 3 Zrotation Yrotation Xrotation
											End Site
											{
												OFFSET 0.000000 0.000000 0.000000
											}
										}
									}
								}
								JOINT LeftHandRing1
								{
									OFFSET 12.147000 0.009900 -2.216600
									CHANNELS 3 Zrotation Yrotation Xrotation
									JOINT LeftHandRing2
									{
										OFFSET 3.601200 0.000000 0.000000
										CHANNELS 3 Zrotation Yrotation Xrotation
										JOINT LeftHandRing3
										{
											OFFSET 3.307300 0.000000 0.000000
											CHANNELS 3 Zrotation Yrotation Xrotation
											End Site
											{
												OFFSET 0.000000 0.000000 0.000000
											}
										}
									}
								}
								JOINT LeftHandPinky1
								{
									OFFSET 10.908200 -0.226400 -4.725800
									CHANNELS 3 Zrotation Yrotation Xrotation
									JOINT LeftHandPinky2
									{
										OFFSET 4.136700 0.000000 0.000000
										CHANNELS 3 Zrotation Yrotation Xrotation
										JOINT LeftHandPinky3
										{
											OFFSET 2.594800 0.000000 0.000000
											CHANNELS 3 Zrotation Yrotation Xrotation
											End Site
											{
												OFFSET 0.000000 0.000000 0.000000
											}
										}
									}
								}
							}
						}
					}
				}
				JOINT RightShoulder
				{
					OFFSET -6.105700 9.110500 0.705600
					CHANNELS 3 Zrotation Yrotation Xrotation
					JOINT RightArm
					{
						OFFSET -12.655000 -0.266000 -2.600900
						CHANNELS 3 Zrotation Yrotation Xrotation
						JOINT RightForeArm
						{
							OFFSET -27.404700 0.000000 0.000000
							CHANNELS 3 Zrotation Yrotation Xrotation
							JOINT RightHand
							{
								OFFSET -27.614500 0.000000 0.000000
								CHANNELS 3 Zrotation Yrotation Xrotation
								JOINT RightHandMiddle1
								{
									OFFSET -12.775500 0.000000 0.000000
									CHANNELS 3 Zrotation Yrotation Xrotation
									JOINT RightHandMiddle2
									{
										OFFSET -3.614000 0.000000 0.000000
										CHANNELS 3 Zrotation Yrotation Xrotation
										JOINT RightHandMiddle3
										{
											OFFSET -3.459800 0.000000 0.000000
											CHANNELS 3 Zrotation Yrotation Xrotation
											End Site
											{
												OFFSET 0.000000 0.000000 0.000000
											}
										}
									}
								}
								JOINT RightHandThumb1
								{
									OFFSET -3.788800 -2.167000 3.003100
									CHANNELS 3 Zrotation Yrotation Xrotation
									JOINT RightHandThumb2
									{
										OFFSET -3.675400 -2.122000 2.122000
										CHANNELS 3 Zrotation Yrotation Xrotation
										JOINT RightHandThumb3
										{
											OFFSET -3.394400 -1.959700 1.959800
											CHANNELS 3 Zrotation Yrotation Xrotation
											End Site
											{
												OFFSET 0.000000 0.000000 0.000000
											}
										}
									}
								}
								JOINT RightHandIndex1
								{
									OFFSET -12.266600 -0.231700 2.822100
									CHANNELS 3 Zrotation Yrotation Xrotation
									JOINT RightHandIndex2
									{
										OFFSET -3.892000 0.000000 0.000000
										CHANNELS 3 Zrotation Yrotation Xrotation
										JOINT RightHandIndex3
										{
											OFFSET -3.415200 0.000000 0.000000
											CHANNELS 3 Zrotation Yrotation Xrotation
											End Site
											{
												OFFSET 0.000000 0.000000 0.000000
											}
										}
									}
								}
								JOINT RightHandRing1
								{
									OFFSET -12.147000 0.009900 -2.216600
									CHANNELS 3 Zrotation Yrotation Xrotation
									JOINT RightHandRing2
									{
										OFFSET -3.601200 0.000000 0.000000
										CHANNELS 3 Zrotation Yrotation Xrotation
										JOINT RightHandRing3
										{
											OFFSET -3.307300 0.000000 0.000000
											CHANNELS 3 Zrotation Yrotation Xrotation
											End Site
											{
												OFFSET 0.000000 0.000000 0.000000
											}
										}
									}
								}
								JOINT RightHandPinky1
								{
									OFFSET -10.908200 -0.226400 -4.725800
									CHANNELS 3 Zrotation Yrotation Xrotation
									JOINT RightHandPinky2
									{
										OFFSET -4.136700 0.000000 0.000000
										CHANNELS 3 Zrotation Yrotation Xrotation
										JOINT RightHandPinky3
										{
											OFFSET -2.594800 0.000000 0.000000
											CHANNELS 3 Zrotation Yrotation Xrotation
											End Site
											{
												OFFSET 0.000000 0.000000 0.000000
											}
										}
									}
								}
							}
						}
					}
				}
			}
		}
	}
	JOINT RightUpLeg
	{
		OFFSET -9.124500 -6.656400 -0.055400
		CHANNELS 3 Zrotation Yrotation Xrotation
		JOINT RightLeg
		{
			OFFSET -0.244700 -40.595400 -0.514500
			CHANNELS 3 Zrotation Yrotation Xrotation
			JOINT RightFoot
			{
				OFFSET 0.244700 -42.047900 -2.060200
				CHANNELS 3 Zrotation Yrotation Xrotation
				JOINT RightToeBase
				{
					OFFSET -0.373400 -10.492200 12.640700
					CHANNELS 3 Zrotation Yrotation Xrotation
					End Site
					{
						OFFSET 0.000000 0.000000 0.000000
					}
				}
			}
		}
	}
	JOINT LeftUpLeg
	{
		OFFSET 9.124500 -6.656400 -0.055400
		CHANNELS 3 Zrotation Yrotation Xrotation
		JOINT LeftLeg
		{
			OFFSET 0.244700 -40.595400 -0.517000
			CHANNELS 3 Zrotation Yrotation Xrotation
			JOINT LeftFoot
			{
				OFFSET -0.244700 -42.048000 -2.057600
				CHANNELS 3 Zrotation Yrotation Xrotation
				JOINT LeftToeBase
				{
					OFFSET 0.373400 -10.492200 12.640700
					CHANNELS 3 Zrotation Yrotation Xrotation
					End Site
					{
						OFFSET 0.000000 0.000000 0.000000
					}
				}
			}
		}
	}
}
MOTION
Frames: 4
Frame Time: 0.016667
0.770019 87.576900 -304.025420 -13.923698 16.377549 12.164257 -8.322771 1.464369 12.162933 -3.207858 2.162680 8.852906 -3.205421 2.277808 8.822196 -3.040253 12.363096 -0.876992 -42.118120 53.626578 -43.925343 0.000000 -0.000000 0.000000 0.000000 -0.000000 0.000000 0.000000 -0.000000 0.000000 -16.567802 -10.974155 3.369762 -46.942617 1.253645 0.282611 0.000025 -62.222700 -0.000010 13.740346 -29.028223 18.812351 -7.940636 3.156421 -0.318840 -25.611191 2.535062 -0.576308 -10.305734 1.049749 -0.094653 -14.385881 12.427041 -4.690717 40.051895 -1.496687 17.300088 18.850298 16.460310 11.483129 10.259908 1.266291 0.389505 -28.897101 2.833570 -0.730239 -5.132406 0.524961 -0.023533 -21.275727 4.347267 -1.195410 -22.683710 2.261959 -0.453761 -20.897089 2.092303 -0.385893 -28.099182 4.868634 -1.744245 -24.171751 2.401573 -0.514285 -32.467525 3.147168 -0.916571 3.789148 12.447506 1.879976 42.036837 21.109997 -8.452660 -0.000018 46.761500 -0.000002 -6.018127 14.289016 -27.267839 28.908498 -4.270985 -1.640377 45.455805 -3.320663 -1.391296 26.401094 -2.073155 -0.486328 14.528762 -11.193318 -5.251426 -38.943664 4.675677 18.463553 -16.927008 -27.045529 14.465985 12.827450 -3.270005 -0.575882 29.417120 -2.289804 -0.601160 1.671425 -0.136037 -0.001981 40.470392 -4.787213 -2.556474 35.145889 -2.683175 -0.849896 34.787862 -2.659339 -0.833219 47.398333 -5.004603 -3.148465 37.829759 -2.858453 -0.979664 46.116869 -3.358087 -1.429786 -5.335592 -23.467471 -49.761031 -2.350711 -13.413466 52.747270 11.824742 -16.397183 11.189725 5.786791 0.034053 -3.677901 4.362824 -7.196461 -60.002022 5.641534 -8.206824 60.067328 -0.923356 8.308060 -17.692812 -0.000001 0.000010 -1.012180 
2.127920 88.499700 -305.379443 -13.987284 15.513093 11.328985 -7.203635 2.000382 11.608673 -2.625501 2.435119 8.591427 -2.615617 2.542271 8.561259 -2.975701 12.301379 -0.258483 -41.789128 54.000966 -42.654843 -0.000000 -0.000000 -0.000000 -0.000000 -0.000000 -0.000000 -0.000000 -0.000000 -0.000000 -15.021167 -10.022936 3.031955 -46.218658 2.828800 3.992213 -0.000076 -64.928000 0.000005 13.189561 -28.535719 20.174811 -8.359023 3.196773 -0.342020 -26.029515 2.573551 -0.594948 -10.723353 1.091808 -0.102475 -14.385783 12.427041 -4.690727 40.051795 -1.496687 17.300088 18.850328 16.460305 11.483233 9.842623 1.311871 0.380124 -29.315620 2.870934 -0.751063 -5.549933 0.567559 -0.027529 -21.695274 4.381219 -1.227347 -23.101790 2.301373 -0.470400 -21.315230 2.132188 -0.401287 -28.519347 4.898557 -1.780014 -24.589953 2.440525 -0.531967 -32.886283 3.183133 -0.939675 1.876668 13.664756 1.420640 39.678444 22.130647 -7.830759 -0.000012 48.751400 -0.000004 -4.313574 14.804997 -26.513494 29.087868 -4.280393 -1.653784 45.634856 -3.330865 -1.401678 26.579840 -2.086163 -0.492808 14.528762 -11.193318 -5.251426 -38.943764 4.675677 18.463553 -16.927008 -27.045529 14.465985 13.178456 -3.294942 -0.595990 29.595841 -2.302460 -0.608334 1.849856 -0.150541 -0.002418 40.649940 -4.793751 -2.571481 35.324658 -2.695038 -0.858252 34.966724 -2.671282 -0.841551 47.578064 -5.009301 -3.164148 38.008703 -2.869883 -0.988615 46.295938 -3.368138 -1.440308 -4.203726 -23.582872 -48.368589 -2.739916 -13.870875 55.970936 11.540332 -14.285079 10.768554 5.865242 0.070123 -6.845535 3.013520 -6.717492 -57.865348 5.890423 -8.017810 56.816387 0.399925 8.311869 -15.647203 0.000004 -0.000007 -0.491517 
3.620710 89.604300 -306.739400 -13.958473 14.375371 10.712277 -6.116222 2.707491 10.931353 -2.071713 2.862949 8.141711 -2.055305 2.948606 8.114075 -3.157551 12.065571 0.357927 -41.506610 54.209463 -41.050339 -0.000000 0.000000 -0.000000 -0.000000 0.000000 -0.000000 -0.000000 0.000000 -0.000000 -13.189481 -8.658595 2.623187 -44.972526 4.520618 7.437157 -0.000003 -71.577000 -0.000000 12.537198 -27.978805 21.523475 -9.506331 3.306527 -0.407093 -27.176659 2.678379 -0.647499 -11.868542 1.206767 -0.125431 -14.385781 12.427041 -4.690717 40.051792 -1.496696 17.300088 18.850328 16.460305 11.483233 8.698310 1.436423 0.352661 -30.463384 2.972574 -0.809549 -6.694798 0.684120 -0.040013 -22.845763 4.473024 -1.316139 -24.248451 2.408722 -0.517527 -22.461602 2.240992 -0.445036 -29.671463 4.979204 -1.879214 -25.736854 2.546629 -0.581847 -34.034591 3.280957 -1.004427 -0.790718 14.698508 0.914640 36.455427 23.264896 -7.448709 0.000005 50.794000 0.000021 -2.224581 15.342045 -25.773474 29.596489 -4.306789 -1.691839 46.142793 -3.359534 -1.431290 27.086646 -2.122946 -0.511425 14.528762 -11.193318 -5.251426 -38.943661 4.675687 18.463553 -16.927008 -27.045529 14.465985 14.174076 -3.364931 -0.653791 30.102857 -2.338179 -0.628869 2.356073 -0.191758 -0.003941 41.159340 -4.812001 -2.614110 35.832004 -2.728567 -0.882294 35.474040 -2.704922 -0.865333 48.087691 -5.022275 -3.208702 38.516155 -2.902236 -1.014171 46.803925 -3.396474 -1.470273 -2.497122 -23.589669 -46.750406 -3.431271 -13.755835 58.582727 12.771487 -12.931779 10.124416 4.623134 0.014683 -9.685170 1.622871 -6.110051 -55.481345 6.184310 -7.817968 52.794111 1.279186 8.284443 -13.248830 -0.000000 0.000002 0.084516 
5.132070 90.794400 -308.105840 -13.803409 13.193004 10.276663 -5.177373 3.676571 10.190195 -1.645303 3.494289 7.619650 -1.622048 3.558282 7.597012 -3.504716 11.858155 1.052565 -41.131235 54.268461 -39.094963 0.000000 -0.000000 0.000000 0.000000 -0.000000 0.000000 0.000000 -0.000000 0.000000 -11.611826 -7.012503 2.241768 -43.249696 6.349845 10.749927 -0.000013 -78.905900 0.000004 11.776730 -27.488752 22.741941 -11.221055 3.468064 -0.508405 -28.890979 2.833020 -0.729929 -13.579843 1.377654 -0.164022 -14.385777 12.427042 -4.690697 40.051789 -1.496706 17.300088 18.850298 16.460310 11.483129 6.988388 1.621467 0.307047 -32.178564 3.122215 -0.900748 -8.405494 0.857761 -0.063032 -24.565166 4.606856 -1.452243 -25.962116 2.567363 -0.591941 -24.174760 2.401863 -0.514451 -31.393524 5.095925 -2.030419 -27.450848 2.703281 -0.660390 -35.750904 3.424645 -1.104803 -3.690975 15.430587 0.478905 33.080148 24.376592 -7.684853 -0.000009 52.657400 -0.000036 0.296952 15.916824 -24.908530 30.390529 -4.347365 -1.751752 46.935777 -3.403750 -1.478108 27.878086 -2.180043 -0.541142 14.528764 -11.193318 -5.251437 -38.943664 4.675677 18.463553 -16.927008 -27.045529 14.465985 15.728716 -3.472246 -0.746532 30.894428 -2.393631 -0.661495 3.146341 -0.256011 -0.007044 41.954461 -4.839792 -2.681016 36.624149 -2.780452 -0.920352 36.266142 -2.757068 -0.903062 48.883338 -5.041837 -3.278509 39.308523 -2.952291 -1.054600 47.596985 -3.440176 -1.517565 -0.948153 -23.583047 -45.015932 -3.931896 -13.659698 60.414263 13.562772 -12.892464 10.309839 3.987279 -0.010597 -11.724200 0.104510 -5.363304 -52.880985 6.532100 -7.619475 48.022570 2.186546 8.232124 -10.646561 0.000003 -0.000006 0.549108 
